HIERARCHY
ROOT Hips
{
	OFFSET 0.000000 97.167313 0.000000
	CHANNELS 6 Xposition Yposition Zposition Xrotation Yrotation Zrotation
	JOINT Spine
	{
		OFFSET 0.000000 13.784798 0.064400
		CHANNELS 3 Xrotation Yrotation Zrotation
		JOINT Spine1
		{
			OFFSET 0.000000 12.037903 0.404700
			CHANNELS 3 Xrotation Yrotation Zrotation
			JOINT Spine2
			{
				OFFSET 0.000000 17.795601 0.420200
				CHANNELS 3 Xrotation Yrotation Zrotation
				JOINT Neck
				{
					OFFSET 0.000000 39.131302 11.954600
					CHANNELS 3 Xrotation Yrotation Zrotation
					JOINT Head
					{
						OFFSET 0.000000 14.456192 15.627699
						CHANNELS 3 Xrotation Yrotation Zrotation
						JOINT HeadTop_End
						{
							OFFSET 0.000000 15.703506 7.603401
							CHANNELS 3 Xrotation Yrotation Zrotation
							End Site
							{
								OFFSET 0.000000 17.447403 0.000000
							}
						}
					}
				}
				JOINT LeftShoulder
				{
					OFFSET 17.399500 24.608795 1.168800
					CHANNELS 3 Xrotation Yrotation Zrotation
					JOINT LeftArm
					{
						OFFSET 18.980635 5.765305 1.818600
						CHANNELS 3 Xrotation Yrotation Zrotation
						JOINT LeftForeArm
						{
							OFFSET 49.290169 0.000000 0.000000
							CHANNELS 3 Xrotation Yrotation Zrotation
							JOINT LeftHand
							{
								OFFSET 31.562012 0.000000 0.000000
								CHANNELS 3 Xrotation Yrotation Zrotation
								JOINT LeftHandThumb1
								{
									OFFSET 6.133995 -4.388519 7.076070
									CHANNELS 3 Xrotation Yrotation Zrotation
									JOINT LeftHandThumb2
									{
										OFFSET 6.037666 -3.485840 3.485847
										CHANNELS 3 Xrotation Yrotation Zrotation
										JOINT LeftHandThumb3
										{
											OFFSET 6.496506 -3.750763 3.750761
											CHANNELS 3 Xrotation Yrotation Zrotation
											JOINT LeftHandThumb4
											{
												OFFSET 5.616882 -3.242905 3.242910
												CHANNELS 3 Xrotation Yrotation Zrotation
												End Site
												{
													OFFSET -1.254608 7.132141 0.375429
												}
											}
										}
									}
								}
								JOINT LeftHandPinky1
								{
									OFFSET 18.920792 -0.453171 -11.426712
									CHANNELS 3 Xrotation Yrotation Zrotation
									JOINT LeftHandPinky2
									{
										OFFSET 4.919586 0.000000 0.000000
										CHANNELS 3 Xrotation Yrotation Zrotation
										JOINT LeftHandPinky3
										{
											OFFSET 5.233047 0.000000 0.000000
											CHANNELS 3 Xrotation Yrotation Zrotation
											JOINT LeftHandPinky4
											{
												OFFSET 5.571716 0.000000 0.000000
												CHANNELS 3 Xrotation Yrotation Zrotation
												End Site
												{
													OFFSET -3.459808 4.342407 -0.466164
												}
											}
										}
									}
								}
								JOINT LeftHandRing1
								{
									OFFSET 22.726120 -0.094986 -6.500475
									CHANNELS 3 Xrotation Yrotation Zrotation
									JOINT LeftHandRing2
									{
										OFFSET 6.408615 0.000000 0.000000
										CHANNELS 3 Xrotation Yrotation Zrotation
										JOINT LeftHandRing3
										{
											OFFSET 6.150223 0.000000 0.000000
											CHANNELS 3 Xrotation Yrotation Zrotation
											JOINT LeftHandRing4
											{
												OFFSET 6.145386 0.000000 0.000000
												CHANNELS 3 Xrotation Yrotation Zrotation
												End Site
												{
													OFFSET -3.671402 4.923981 -0.202372
												}
											}
										}
									}
								}
								JOINT LeftHandMiddle1
								{
									OFFSET 23.373947 0.000000 0.000001
									CHANNELS 3 Xrotation Yrotation Zrotation
									JOINT LeftHandMiddle2
									{
										OFFSET 6.996567 0.000000 0.000000
										CHANNELS 3 Xrotation Yrotation Zrotation
										JOINT LeftHandMiddle3
										{
											OFFSET 7.015945 0.000000 0.000000
											CHANNELS 3 Xrotation Yrotation Zrotation
											JOINT LeftHandMiddle4
											{
												OFFSET 7.721573 0.000000 0.000000
												CHANNELS 3 Xrotation Yrotation Zrotation
												End Site
												{
													OFFSET -4.651108 6.158463 0.251582
												}
											}
										}
									}
								}
								JOINT LeftHandIndex1
								{
									OFFSET 21.310577 -0.490082 6.209344
									CHANNELS 3 Xrotation Yrotation Zrotation
									JOINT LeftHandIndex2
									{
										OFFSET 7.536453 0.000000 0.000000
										CHANNELS 3 Xrotation Yrotation Zrotation
										JOINT LeftHandIndex3
										{
											OFFSET 7.512344 0.000000 0.000000
											CHANNELS 3 Xrotation Yrotation Zrotation
											JOINT LeftHandIndex4
											{
												OFFSET 10.212402 0.000000 0.000001
												CHANNELS 3 Xrotation Yrotation Zrotation
												End Site
												{
													OFFSET -5.180801 8.690506 1.388433
												}
											}
										}
									}
								}
							}
						}
					}
				}
				JOINT RightShoulder
				{
					OFFSET -17.399500 24.608795 1.168800
					CHANNELS 3 Xrotation Yrotation Zrotation
					JOINT RightArm
					{
						OFFSET -18.980635 5.765305 1.818600
						CHANNELS 3 Xrotation Yrotation Zrotation
						JOINT RightForeArm
						{
							OFFSET -49.290169 0.000000 0.000000
							CHANNELS 3 Xrotation Yrotation Zrotation
							JOINT RightHand
							{
								OFFSET -31.562012 0.000000 0.000000
								CHANNELS 3 Xrotation Yrotation Zrotation
								JOINT RightHandThumb1
								{
									OFFSET -6.133995 -4.388519 7.076070
									CHANNELS 3 Xrotation Yrotation Zrotation
									JOINT RightHandThumb2
									{
										OFFSET -6.037666 -3.485840 3.485847
										CHANNELS 3 Xrotation Yrotation Zrotation
										JOINT RightHandThumb3
										{
											OFFSET -6.496506 -3.750763 3.750761
											CHANNELS 3 Xrotation Yrotation Zrotation
											JOINT RightHandThumb4
											{
												OFFSET -5.616882 -3.242905 3.242910
												CHANNELS 3 Xrotation Yrotation Zrotation
												End Site
												{
													OFFSET 1.254608 7.132141 0.375429
												}
											}
										}
									}
								}
								JOINT RightHandIndex1
								{
									OFFSET -21.310577 -0.490082 6.209344
									CHANNELS 3 Xrotation Yrotation Zrotation
									JOINT RightHandIndex2
									{
										OFFSET -7.536453 0.000000 0.000000
										CHANNELS 3 Xrotation Yrotation Zrotation
										JOINT RightHandIndex3
										{
											OFFSET -7.512344 0.000000 0.000000
											CHANNELS 3 Xrotation Yrotation Zrotation
											JOINT RightHandIndex4
											{
												OFFSET -10.212402 0.000000 0.000001
												CHANNELS 3 Xrotation Yrotation Zrotation
												End Site
												{
													OFFSET 5.180801 8.690506 1.388433
												}
											}
										}
									}
								}
								JOINT RightHandMiddle1
								{
									OFFSET -23.373947 0.000000 0.000001
									CHANNELS 3 Xrotation Yrotation Zrotation
									JOINT RightHandMiddle2
									{
										OFFSET -6.996567 0.000000 0.000000
										CHANNELS 3 Xrotation Yrotation Zrotation
										JOINT RightHandMiddle3
										{
											OFFSET -7.015945 0.000000 0.000000
											CHANNELS 3 Xrotation Yrotation Zrotation
											JOINT RightHandMiddle4
											{
												OFFSET -7.721573 0.000000 0.000000
												CHANNELS 3 Xrotation Yrotation Zrotation
												End Site
												{
													OFFSET 4.651108 6.158463 0.251582
												}
											}
										}
									}
								}
								JOINT RightHandRing1
								{
									OFFSET -22.726120 -0.094986 -6.500475
									CHANNELS 3 Xrotation Yrotation Zrotation
									JOINT RightHandRing2
									{
										OFFSET -6.408615 0.000000 0.000000
										CHANNELS 3 Xrotation Yrotation Zrotation
										JOINT RightHandRing3
										{
											OFFSET -6.150223 0.000000 0.000000
											CHANNELS 3 Xrotation Yrotation Zrotation
											JOINT RightHandRing4
											{
												OFFSET -6.145386 0.000000 0.000000
												CHANNELS 3 Xrotation Yrotation Zrotation
												End Site
												{
													OFFSET 3.671402 4.923981 -0.202372
												}
											}
										}
									}
								}
								JOINT RightHandPinky1
								{
									OFFSET -18.920792 -0.453171 -11.426712
									CHANNELS 3 Xrotation Yrotation Zrotation
									JOINT RightHandPinky2
									{
										OFFSET -4.919586 0.000000 0.000000
										CHANNELS 3 Xrotation Yrotation Zrotation
										JOINT RightHandPinky3
										{
											OFFSET -5.233047 0.000000 0.000000
											CHANNELS 3 Xrotation Yrotation Zrotation
											JOINT RightHandPinky4
											{
												OFFSET -5.571716 0.000000 0.000000
												CHANNELS 3 Xrotation Yrotation Zrotation
												End Site
												{
													OFFSET 3.459808 4.342407 -0.466164
												}
											}
										}
									}
								}
							}
						}
					}
				}
			}
		}
	}
	JOINT LeftUpLeg
	{
		OFFSET 19.899099 -7.885101 -3.429500
		CHANNELS 3 Xrotation Yrotation Zrotation
		JOINT LeftLeg
		{
			OFFSET 1.745560 -36.997807 10.304700
			CHANNELS 3 Xrotation Yrotation Zrotation
			JOINT LeftFoot
			{
				OFFSET -1.745558 -29.803308 -13.615400
				CHANNELS 3 Xrotation Yrotation Zrotation
				JOINT LeftToeBase
				{
					OFFSET 1.181900 -18.539904 15.226099
					CHANNELS 3 Xrotation Yrotation Zrotation
					JOINT LeftToe_End
					{
						OFFSET -0.863701 1.402801 16.534700
						CHANNELS 3 Xrotation Yrotation Zrotation
						End Site
						{
							OFFSET 0.000000 16.616566 0.000000
						}
					}
				}
			}
		}
	}
	JOINT RightUpLeg
	{
		OFFSET -19.899099 -7.885101 -3.429500
		CHANNELS 3 Xrotation Yrotation Zrotation
		JOINT RightLeg
		{
			OFFSET -1.745560 -36.997807 10.304700
			CHANNELS 3 Xrotation Yrotation Zrotation
			JOINT RightFoot
			{
				OFFSET 1.745558 -29.803308 -13.615400
				CHANNELS 3 Xrotation Yrotation Zrotation
				JOINT RightToeBase
				{
					OFFSET -1.181900 -18.539904 15.226099
					CHANNELS 3 Xrotation Yrotation Zrotation
					JOINT RightToe_End
					{
						OFFSET 0.863701 1.402801 16.534700
						CHANNELS 3 Xrotation Yrotation Zrotation
						End Site
						{
							OFFSET 0.000000 16.616566 0.000000
						}
					}
				}
			}
		}
	}
}
MOTION
Frames: 4
Frame Time: 0.033333
-26.908937 84.603409 -27.802254 23.098334 34.989720 -12.133321 2.786955 1.448606 0.944941 3.043220 2.440849 0.135897 3.059090 2.385924 0.022299 -8.399254 0.263961 1.103037 -18.600243 2.827196 0.084323 0.000000 0.000004 -0.000000 0.052726 3.420917 0.641223 -14.679321 -17.373326 -73.656842 0.000016 -124.891471 -0.000006 15.409726 -28.079546 20.221033 -9.674878 0.269249 1.575509 18.218558 20.128250 -3.103233 -18.368626 -26.422980 1.176763 0.000001 0.000004 0.000000 -0.971995 7.373303 -81.789500 4.875829 5.769491 -80.389114 3.900821 5.517554 -70.498317 0.000002 -0.000004 -0.000004 -3.031077 6.311076 -77.007200 4.525110 5.699335 -76.879954 1.582106 4.005076 -43.096977 0.000001 0.000004 0.000000 -2.136897 4.844059 -63.144074 3.949289 5.534397 -71.001995 2.426976 4.747352 -54.134969 0.000000 -0.000001 0.000002 -2.820718 1.784282 -60.959145 2.905226 5.057631 -59.726692 0.999802 3.275012 -33.944633 -0.000002 0.000005 0.000002 0.524590 4.005313 6.911111 -21.916366 15.880518 53.469330 -0.000025 123.995527 0.000067 26.121466 -4.811874 -26.531381 -6.752291 7.209122 -18.581244 15.496774 -26.814554 14.041867 -5.091407 21.886465 -19.457998 0.000000 -0.000001 -0.000001 -2.514338 11.191660 27.662425 3.673409 -4.552299 77.792030 0.612256 -2.310152 29.684142 -0.000000 0.000000 0.000004 -4.092961 -0.389505 46.872132 2.718058 -4.235078 65.370245 0.741849 -2.523757 32.756190 -0.000001 0.000003 -0.000008 -3.251196 -1.715425 50.292319 3.545931 -4.522942 76.180911 0.544641 -2.187346 27.960710 -0.000002 -0.000001 -0.000005 -2.264977 -3.291614 56.019357 2.105780 -3.897371 56.751810 0.753705 -2.542083 33.024583 0.000000 0.000000 0.000001 -28.182132 5.792264 -3.243727 34.606222 -2.684754 0.400553 -23.403928 -4.938269 3.519339 -2.675960 0.000012 0.000001 0.000000 0.000003 0.000000 -24.173604 -5.540370 -1.711443 36.256082 6.915991 2.207954 -29.062844 4.540767 -11.686939 -4.221463 0.000008 -0.000002 0.000000 -0.000000 0.000000 
-24.736578 88.508224 -27.086409 19.714206 35.184138 -9.825469 2.804558 1.680424 1.562358 3.101496 2.629269 0.366354 3.126072 2.568770 0.249473 -6.797536 0.390072 1.002867 -16.126230 3.375314 -0.258925 -0.000000 -0.000001 -0.000000 -0.058800 3.569371 1.995626 -14.594782 -16.223402 -73.552040 -0.000020 -125.115378 -0.000026 17.564911 -25.807795 19.979092 -9.674873 0.269251 1.575508 17.954928 19.019551 -2.988465 -18.736836 -27.472418 0.850220 -0.000002 0.000001 -0.000002 -1.067706 7.355990 -80.637432 4.760489 5.748858 -79.239306 3.790728 5.477480 -69.349520 -0.000001 0.000000 -0.000006 -3.087432 6.138829 -75.881237 4.409379 5.671260 -75.711711 1.503053 3.919069 -41.952852 -0.000001 -0.000001 0.000003 -2.170536 4.691394 -62.013740 3.837824 5.494904 -69.841922 2.332764 4.678048 -52.988556 0.000001 -0.000002 0.000002 -2.876066 1.704553 -59.822704 2.804140 4.997468 -58.573216 0.935531 3.177599 -32.802779 -0.000002 0.000003 0.000006 0.560831 4.935392 5.517029 -19.385511 14.598337 54.619568 -0.000035 124.575752 0.000047 25.941535 -5.862952 -25.954598 -6.752290 7.209119 -18.581243 15.019748 -25.797281 13.701372 -5.089697 22.991902 -19.319390 -0.000000 -0.000001 -0.000001 -2.475317 11.253467 26.529409 3.580962 -4.531379 76.624723 0.567025 -2.228978 28.541856 -0.000002 -0.000000 -0.000004 -4.039927 -0.229983 45.750270 2.632445 -4.194880 64.205554 0.692321 -2.445150 31.613811 0.000001 -0.000001 -0.000004 -3.225801 -1.568882 49.165344 3.454673 -4.499570 75.020558 0.501859 -2.104860 26.818739 0.000000 0.000002 0.000000 -2.326103 -3.246878 54.874423 2.028401 -3.845672 55.606155 0.703809 -2.463700 31.881967 -0.000004 0.000002 0.000001 -22.391510 6.060928 -5.357656 27.368693 -3.262330 0.970495 -14.113582 -4.667441 5.014226 -8.371368 0.000001 0.000000 0.000000 0.000001 0.000000 -20.975309 -5.973220 -4.307984 31.081244 6.948161 2.145418 -18.058178 4.146125 -7.059414 -11.488146 -0.000006 -0.000002 -0.000000 0.000001 0.000000 
-21.639282 93.747116 -26.067179 17.167795 35.347032 -7.519532 1.868354 1.722244 2.080894 2.313114 2.624265 0.504666 2.336672 2.582178 0.412213 -4.946432 0.462797 0.434530 -11.283991 3.176883 -1.182561 0.000000 -0.000002 -0.000000 -0.107915 4.444227 1.555984 -15.179894 -16.049732 -71.090515 0.000007 -125.614173 -0.000002 19.456813 -20.835111 17.936948 -9.674879 0.269249 1.575509 17.288653 16.151534 -2.812886 -19.791259 -30.161610 -0.138767 0.000006 0.000001 0.000000 -1.323973 7.302532 -77.665979 4.465027 5.685085 -76.274389 3.510846 5.364174 -66.387601 -0.000000 0.000000 -0.000006 -3.217405 5.691550 -72.979649 4.113828 5.588069 -72.699461 1.307293 3.690198 -39.003314 -0.000001 0.000000 0.000005 -2.243927 4.296130 -59.099994 3.554243 5.382846 -66.850934 2.096509 4.490795 -50.033140 0.000001 -0.000002 0.000004 -3.019874 1.487497 -56.893290 2.549285 4.833120 -55.599492 0.778904 2.920686 -29.858992 0.000000 0.000001 0.000001 0.591871 4.599241 4.307073 -16.686162 16.490537 55.008568 -0.000026 124.265812 0.000047 24.922696 -8.587553 -23.147742 -6.752291 7.209118 -18.581243 13.811102 -23.132913 13.005172 -5.141759 25.851870 -18.877065 -0.000000 0.000000 0.000001 -2.375834 11.430545 23.608938 3.344739 -4.468799 73.614597 0.457922 -2.015645 25.596557 -0.000000 -0.000001 -0.000003 -3.890129 0.175093 42.856124 2.415643 -4.083286 61.202443 0.571951 -2.238017 28.668244 -0.000000 -0.000000 -0.000004 -3.148089 -1.194657 46.258740 3.221657 -4.430867 72.028498 0.399258 -1.888384 23.874242 -0.000002 0.000000 -0.000005 -2.488095 -3.121776 51.922142 1.833854 -3.705294 52.652204 0.582433 -2.257090 28.935864 -0.000000 -0.000001 0.000004 -15.875825 6.877765 -8.154222 16.114937 -1.188646 2.376874 1.839808 -8.382891 5.602227 -21.351608 0.000006 0.000005 -0.000000 0.000002 0.000000 -18.950163 -4.765084 -5.523523 24.238052 6.513289 0.706919 -0.021802 1.556670 -4.112291 -19.783573 -0.010712 1.185789 -0.000000 0.000003 0.000000 
-18.814285 97.166245 -25.527687 15.743741 35.358154 -7.068398 0.767426 1.779120 3.825322 1.426372 2.475391 0.671849 1.447290 2.461016 0.604355 -3.395557 0.518669 -0.141554 -7.250538 2.889327 -2.196222 -0.000001 0.000001 -0.000001 -0.000251 4.592067 0.065760 -16.657641 -15.202198 -67.543358 -0.000021 -126.653359 -0.000061 19.595932 -17.803902 16.800469 -9.674876 0.269246 1.575507 16.395012 12.221508 -2.849236 -21.509958 -33.781289 -1.864372 0.000004 0.000002 -0.000003 -1.695399 7.206616 -73.602617 4.067323 5.573430 -72.221512 3.138525 5.186253 -62.339540 0.000002 -0.000001 0.000001 -3.359266 5.074436 -69.016582 3.717689 5.449513 -68.582216 1.059313 3.361590 -34.972754 0.000001 0.000001 0.000002 -2.313311 3.753358 -55.118541 3.176897 5.206103 -62.763127 1.789847 4.215577 -45.994518 0.000001 -0.000001 0.000004 -3.216897 1.162954 -52.891113 2.215444 4.587528 -51.535802 0.586576 2.557068 -25.835962 -0.000003 0.000002 -0.000003 0.669028 5.613595 3.963992 -15.578403 17.393224 53.072185 -0.000018 125.391113 0.000043 25.259551 -10.986844 -19.301964 -6.752288 7.209122 -18.581243 12.194592 -19.420630 12.479368 -5.363126 29.776725 -18.055060 -0.000001 -0.000004 -0.000000 -2.238230 11.714744 19.619092 3.027745 -4.363413 69.499641 0.326806 -1.715464 21.570504 0.000002 -0.000001 -0.000001 -3.655704 0.713068 38.896312 2.129304 -3.912688 57.097588 0.424942 -1.945337 24.641992 -0.000002 -0.000000 -0.000004 -3.013889 -0.692700 42.283642 2.909574 -4.317500 67.938321 0.277248 -1.584411 19.849243 0.000001 0.000001 -0.000005 -2.718185 -2.926659 47.886695 1.580141 -3.497546 48.614742 0.434040 -1.965052 24.908848 -0.000002 0.000001 0.000007 -18.666431 7.866242 -4.350863 15.176428 -5.437976 0.020218 19.698015 -7.749404 -6.752170 -26.669222 -0.916224 8.731494 0.000000 0.000001 -0.000001 -18.973241 -4.167715 -4.519716 18.736201 4.286028 -0.379077 19.951469 -0.226349 -4.885163 -31.924912 -1.959383 5.589431 -0.000000 0.000001 -0.000000 
